<svg width="173" height="94" viewBox="0 0 173 94" fill="none" xmlns="http://www.w3.org/2000/svg">
<path d="M21.1446 59.3486L22.5378 86.5854C22.755 90.6626 26.0526 93.7812 29.9125 93.5511L155.641 86.1764C159.501 85.9463 162.454 82.457 162.236 78.3926V75.6958L152.216 79.9647L137.415 79.0061L125.887 81.4218L102.037 78.4565L51.0654 73.7147L21.1318 59.3486H21.1446Z" fill="white"/>
<path d="M157.02 83.3258L160.676 82.8401C162.235 82.6356 163.769 82.1755 165.136 81.3958C168.127 79.7087 170.428 77.0886 171.591 73.8038C171.77 73.267 171.783 72.7046 171.616 72.1806C171.719 71.9505 171.795 71.7077 171.834 71.4521C171.949 70.7107 172 69.6755 172 68.9853C172 62.7864 168.498 57.7123 163.219 55.4628L168.83 48.9572C169.162 48.5737 169.239 48.0497 169.022 47.5896C168.817 47.1294 168.37 46.8483 167.859 46.8483H160.382L158.247 8.4152C158.017 4.338 154.528 1.21939 150.464 1.44945L26.6521 8.8242C22.5749 9.05426 19.4563 12.5435 19.6863 16.608L21.7952 54.6448C16.4783 52.0246 1.47314 54.6192 1.47314 68.8575C1.47314 83.0957 14.3182 85.3197 23.3801 83.3386M165.06 49.4173L160.791 54.3636L160.51 49.4173H165.06ZM162.209 79.9643L161.826 72.973H169.162C168.025 76.1811 165.507 78.6862 162.209 79.9643ZM169.303 71.0686H161.711L161.455 66.5569H161.647C161.583 66.3524 161.507 66.1479 161.417 65.9561L160.97 57.9423C161.046 57.8784 161.136 57.8401 161.213 57.7634L161.417 57.5206C166.197 59.1821 169.418 63.5149 169.418 68.9981C169.418 69.5732 169.38 70.4807 169.29 71.0686H169.303Z" fill="white"/>
<path d="M157.02 83.3258L160.676 82.8401C162.235 82.6356 163.769 82.1755 165.136 81.3958C168.127 79.7087 170.428 77.0886 171.591 73.8038C171.77 73.267 171.783 72.7046 171.616 72.1806C171.719 71.9505 171.795 71.7077 171.834 71.4521C171.949 70.7107 172 69.6755 172 68.9853C172 62.7864 168.498 57.7123 163.219 55.4628L168.83 48.9572C169.162 48.5737 169.239 48.0497 169.022 47.5896C168.817 47.1294 168.37 46.8483 167.859 46.8483H160.382L158.247 8.4152C158.017 4.338 154.528 1.21939 150.464 1.44945L26.6521 8.8242C22.5749 9.05426 19.4563 12.5435 19.6863 16.608L21.7952 54.6448C16.4783 52.0246 1.47314 54.6192 1.47314 68.8575C1.47314 83.0957 14.3182 85.3197 23.3801 83.3386M165.06 49.4173L160.791 54.3636L160.51 49.4173H165.06ZM162.209 79.9643L161.826 72.973H169.162C168.025 76.1811 165.507 78.6862 162.209 79.9643ZM169.303 71.0686H161.711L161.455 66.5569H161.647C161.583 66.3524 161.506 66.1479 161.417 65.9561L160.97 57.9423C161.046 57.8784 161.136 57.8401 161.213 57.7634L161.417 57.5206C166.197 59.1821 169.418 63.5149 169.418 68.9981C169.418 69.5732 169.38 70.4807 169.29 71.0686H169.303Z" stroke="white" stroke-width="1.27812" stroke-miterlimit="10"/>
<path d="M47.6006 39.7276C47.6006 32.8641 52.9303 27.6621 60.0239 27.6621C67.1175 27.6621 72.4856 32.8129 72.4856 39.8554C72.4856 40.4433 72.4472 41.3508 72.345 41.9387H55.4099C56.0873 44.201 57.8894 45.6453 60.2412 45.6453C62.1456 45.6453 63.7177 44.8273 64.4462 43.8431H72.2172C70.5428 48.5849 65.8521 51.793 60.0623 51.793C52.9303 51.793 47.6006 46.6038 47.6006 39.7276ZM55.4099 37.4269H64.7146C64.0372 35.2158 62.3245 33.8099 60.0111 33.8099C57.6977 33.8099 56.1256 35.2158 55.4099 37.4269Z" fill="#20202C"/>
<path d="M75.6583 43.2043V28.2119H82.9691V40.9931C82.9691 43.2554 84.3751 44.6997 86.4967 44.6997C88.7974 44.6997 90.3311 43.2043 90.3311 40.9036V28.2119H97.6547V42.4374C97.6547 43.5621 98.281 44.1501 99.4185 44.1501H99.8659V51.2436H97.872C94.6256 51.2436 92.4017 50.2083 91.2769 48.2145C89.4748 50.5662 87.0336 51.7804 84.0044 51.7804C78.9942 51.7804 75.6455 48.3934 75.6455 43.2043H75.6583Z" fill="#20202C"/>
<path d="M4.0293 68.8457C4.0293 61.9822 9.35906 56.7803 16.4526 56.7803C23.5462 56.7803 28.9143 61.9311 28.9143 68.9735C28.9143 69.5615 28.8759 70.4689 28.7737 71.0569H11.8386C12.516 73.3191 14.3182 74.7634 16.6699 74.7634C18.5743 74.7634 20.1464 73.9454 20.8749 72.9613H28.6459C26.9715 77.7031 22.2808 80.9112 16.491 80.9112C9.35906 80.9112 4.0293 75.722 4.0293 68.8457ZM11.8386 66.5451H21.1433C20.4659 64.334 18.7532 62.928 16.4398 62.928C14.1264 62.928 12.5544 64.334 11.8386 66.5451Z" fill="#20202C"/>
<path d="M71.9092 91.4076C64.8539 91.4076 59.4092 87.3687 58.3611 81.3743C58.2588 80.812 58.4122 80.2496 58.7829 79.815C59.1535 79.3805 59.6903 79.1376 60.2527 79.1376H62.3872C59.1791 76.7475 57.1597 72.8237 57.1597 68.2225C57.1597 60.6177 62.7067 54.8789 70.0559 54.8789C71.8708 54.8789 73.5835 55.2496 75.13 55.9653C75.4751 55.633 75.948 55.4157 76.4721 55.4157H83.7957C84.8565 55.4157 85.7129 56.2721 85.7129 57.3329V77.8851C85.7129 85.9756 80.1658 91.4076 71.9092 91.4076ZM71.5513 65.385C69.7875 65.385 68.4966 66.5737 68.4966 68.2097C68.4966 69.8457 69.7747 71.0855 71.5513 71.0855C73.3279 71.0855 74.5549 69.884 74.5549 68.2097C74.5549 66.5354 73.264 65.385 71.5513 65.385Z" fill="#20202C"/>
<path d="M70.0713 56.7955C72.6403 56.7955 74.8131 57.6518 76.4875 59.0961V57.3323H83.8111V77.8844C83.8111 84.8885 79.0693 89.4898 71.9246 89.4898C65.8663 89.4898 61.1756 86.2433 60.2681 81.0414H67.809C68.4353 82.3579 70.1097 83.2142 71.9629 83.2142C74.762 83.2142 76.4747 81.3609 76.4747 78.2423V77.386C74.8003 78.8302 72.6403 79.6866 70.0585 79.6866C63.783 79.6866 59.0795 74.7658 59.0795 68.2091C59.0795 61.6523 63.783 56.7827 70.0585 56.7827M71.5539 73.002C74.353 73.002 76.4747 70.9187 76.4747 68.2091C76.4747 65.4995 74.353 63.4672 71.5539 63.4672C68.7548 63.4672 66.582 65.5506 66.582 68.2091C66.582 70.8676 68.7037 73.002 71.5539 73.002ZM70.0585 52.9483C61.6102 52.9483 55.2451 59.5051 55.2451 68.2091C55.2451 71.8773 56.3699 75.162 58.2998 77.7438C57.9292 77.9611 57.5969 78.2423 57.3285 78.5746C56.5999 79.4437 56.2932 80.5813 56.4849 81.6932C57.6991 88.6462 63.898 93.3113 71.9118 93.3113C81.1654 93.3113 87.6327 86.9591 87.6327 77.8717V57.3195C87.6327 55.1978 85.92 53.4851 83.7983 53.4851H76.4747C75.9379 53.4851 75.4266 53.6002 74.9537 53.7919C73.4328 53.2295 71.784 52.9355 70.0585 52.9355V52.9483ZM71.5539 69.1677C71.2855 69.1677 70.4164 69.1038 70.4164 68.2091C70.4164 67.5445 71.0043 67.3016 71.5539 67.3016C72.0524 67.3016 72.6403 67.5445 72.6403 68.2091C72.6403 68.8737 72.078 69.1677 71.5539 69.1677Z" fill="white"/>
<path d="M129.195 91.4028C122.14 91.4028 116.695 87.3639 115.647 81.3695L115.251 79.12H119.66C116.452 76.73 114.433 72.8061 114.433 68.2049C114.433 60.6001 119.98 54.8613 127.329 54.8613C128.927 54.8613 130.435 55.1425 131.828 55.7049V55.4109H142.973V77.8803C142.973 85.9708 137.426 91.4028 129.182 91.4028H129.195ZM128.837 65.3803C127.073 65.3803 125.782 66.5689 125.782 68.2049C125.782 69.8409 127.06 71.0807 128.837 71.0807C130.614 71.0807 131.841 69.8792 131.841 68.2049C131.841 66.5306 130.55 65.3803 128.837 65.3803Z" fill="#20202C"/>
<path d="M127.344 56.7915C129.913 56.7915 132.086 57.6478 133.76 59.0921V57.3283H141.071V77.8805C141.071 84.8845 136.329 89.4858 129.198 89.4858C123.139 89.4858 118.449 86.2393 117.541 81.0374H125.082C125.708 82.3539 127.383 83.2102 129.236 83.2102C132.035 83.2102 133.748 81.3569 133.748 78.2383V77.382C132.073 78.8263 129.913 79.6826 127.331 79.6826C121.056 79.6826 116.352 74.7618 116.352 68.2051C116.352 61.6483 121.056 56.7787 127.331 56.7787M128.827 72.998C131.626 72.998 133.748 70.9147 133.748 68.2051C133.748 65.4955 131.626 63.4633 128.827 63.4633C126.028 63.4633 123.855 65.5466 123.855 68.2051C123.855 70.8636 125.977 72.998 128.827 72.998ZM127.331 52.9443C118.883 52.9443 112.518 59.5011 112.518 68.2051C112.518 71.6177 113.489 74.7107 115.189 77.203H112.965L113.745 81.6892C114.959 88.6422 121.158 93.3074 129.172 93.3074C138.426 93.3074 144.88 86.9551 144.88 77.8677V53.4811H131.255C130.003 53.1233 128.686 52.9443 127.319 52.9443H127.331ZM128.827 69.1637C128.558 69.1637 127.689 69.0998 127.689 68.2051C127.689 67.5405 128.277 67.2976 128.827 67.2976C129.325 67.2976 129.913 67.5405 129.913 68.2051C129.913 68.8697 129.351 69.1637 128.827 69.1637Z" fill="white"/>
<path d="M169.444 68.9833C169.444 61.9409 164.114 56.79 156.982 56.79C149.85 56.79 144.559 61.9792 144.559 68.8555C144.559 75.7318 149.889 80.9209 157.021 80.9209C162.798 80.9209 167.501 77.7129 169.176 72.971H161.405C160.689 73.968 159.104 74.7732 157.2 74.7732C154.848 74.7732 153.046 73.3289 152.368 71.0666H169.303C169.393 70.4787 169.444 69.5712 169.444 68.9833ZM152.368 66.5421C153.084 64.3309 154.758 62.925 156.97 62.925C159.181 62.925 160.996 64.3309 161.673 66.5421H152.368Z" fill="#20202C"/>
<path d="M154.373 39.3192C154.373 32.2768 149.043 27.126 141.911 27.126C134.779 27.126 129.488 32.3151 129.488 39.1914C129.488 40.9808 129.858 42.6551 130.523 44.1633H127.315C126.19 44.1633 125.602 43.5754 125.602 42.4506V36.3029C125.602 31.1137 122.126 27.6756 116.924 27.6756C114.304 27.6756 112.041 28.5319 110.278 30.2062V28.2124H102.967V51.2441H110.278V38.8208C110.278 36.3796 111.952 34.7564 114.483 34.7564C116.783 34.7564 118.279 36.3412 118.279 38.7313V44.0611C118.279 48.854 120.809 51.2441 125.781 51.2441H141.949C147.727 51.2441 152.43 48.036 154.104 43.2942H146.333C145.618 44.2911 144.033 45.0963 142.128 45.0963C139.777 45.0963 137.974 43.6521 137.297 41.3898H154.232C154.322 40.8019 154.373 39.8944 154.373 39.3065V39.3192ZM137.297 36.878C138.013 34.6669 139.687 33.261 141.898 33.261C144.109 33.261 145.924 34.6669 146.602 36.878H137.297Z" fill="#20202C"/>
<path d="M156.93 49.4053L153.582 54.5689C154.668 54.3388 155.793 54.2366 156.969 54.2366C158.208 54.2366 159.41 54.3516 160.56 54.6328L165.059 49.4053H156.93Z" fill="#20202C"/>
<path d="M56.7906 73.2798C55.6658 73.2798 55.0779 72.6919 55.0779 71.5671V65.4194C55.0779 60.2302 51.6014 56.7921 46.3995 56.7921C44.6612 56.7921 43.0763 57.1755 41.696 57.9168C43.2808 56.3831 44.0349 54.108 44.0349 51.0661V28.8779C42.9357 29.3892 41.696 29.6831 40.3795 29.6831C39.063 29.6831 37.8233 29.402 36.7241 28.9035V50.2481C36.7241 52.1908 35.6888 53.2261 33.6055 53.2261H32.5191V57.3289H32.4424V80.3606H39.7532V67.9373C39.7532 65.4961 41.4276 63.8728 43.9582 63.8728C46.2589 63.8728 47.7543 65.4577 47.7543 67.8478V73.1776C47.7543 77.9705 50.2849 80.3606 55.2568 80.3606H57.289V73.267H56.7906V73.2798ZM39.766 59.3227V59.2461C39.8299 59.2077 39.9066 59.1822 39.9705 59.1438C39.9066 59.2077 39.8299 59.2588 39.766 59.3227Z" fill="#20202C"/>
<path d="M87.3614 68.8457C87.3614 61.9822 92.1032 56.7803 98.3788 56.7803C100.909 56.7803 103.069 57.6877 104.795 59.1704V57.3171H112.106V71.5426C112.106 72.6673 112.694 73.2552 113.818 73.2552H114.266V80.3488H112.272C109.064 80.3488 106.891 79.3519 105.766 77.4091C103.964 79.5819 101.434 80.8856 98.366 80.8856C92.0905 80.8856 87.3486 75.6964 87.3486 68.8202L87.3614 68.8457ZM104.795 68.8457C104.795 65.9955 102.673 63.8738 99.8231 63.8738C96.9729 63.8738 94.9023 65.9955 94.9023 68.8457C94.9023 71.6959 96.9856 73.8176 99.8231 73.8176C102.661 73.8176 104.795 71.6959 104.795 68.8457Z" fill="#20202C"/>
<path d="M32.4424 57.5456H39.7532V59.5395C41.517 57.8651 43.7793 57.0088 46.3995 57.0088C51.5886 57.0088 55.0779 60.4469 55.0779 65.6361V71.7839C55.0779 72.9086 55.6658 73.4965 56.7906 73.4965H57.289V80.5901H55.2568C50.2849 80.5901 47.7543 78.2 47.7543 73.4071V68.0773C47.7543 65.6872 46.2589 64.1024 43.9582 64.1024C41.4276 64.1024 39.7532 65.7256 39.7532 68.1668V80.5901H32.4424V57.5584V57.5456Z" fill="#20202C"/>
<path d="M31.2422 61.815V52.1652H33.6067C35.1405 52.1652 35.4472 51.539 35.4472 50.4653V27.1396H45.3143V51.2705C45.3143 58.3641 41.5694 61.8023 33.8751 61.8023H31.2422V61.815Z" fill="#20202C"/>
<path d="M44.0335 28.4313V51.2841C44.0335 57.5213 40.9149 60.5377 33.8725 60.5377H32.5177V53.4441H33.6041C35.6874 53.4441 36.7227 52.4088 36.7227 50.4661V28.4185H44.0335M46.5898 25.8623H34.1664V50.4661C34.1664 50.645 34.1537 50.7729 34.1281 50.8368C34.0386 50.8623 33.8725 50.8879 33.6041 50.8879H29.9614V63.0939H33.8725C39.6751 63.0939 46.5898 61.0489 46.5898 51.2841V25.8751V25.8623Z" fill="white"/>
<mask id="path-19-outside-1_115_2539" maskUnits="userSpaceOnUse" x="31.7227" y="12.5801" width="18.0627" height="18.0627" fill="black">
<rect fill="white" x="31.7227" y="12.5801" width="18.0627" height="18.0627"/>
<path d="M40.7442 25.4198C41.9454 25.3421 42.8534 24.6953 43.3986 23.8006L45.1639 24.983C44.2875 26.3515 42.7804 27.2934 40.8735 27.4168C37.5552 27.6316 35.1227 25.2259 34.9283 22.2229C34.7339 19.2199 36.8359 16.5207 40.1542 16.3058C42.0611 16.1824 43.678 16.9372 44.7216 18.1512L43.1245 19.5664C42.4685 18.7494 41.4847 18.2251 40.2835 18.3028C38.3015 18.4311 36.9902 20.069 37.1205 22.081C37.2507 24.093 38.7622 25.5481 40.7442 25.4198Z"/>
</mask>
<path d="M40.7442 25.4198C41.9454 25.3421 42.8534 24.6953 43.3986 23.8006L45.1639 24.983C44.2875 26.3515 42.7804 27.2934 40.8735 27.4168C37.5552 27.6316 35.1227 25.2259 34.9283 22.2229C34.7339 19.2199 36.8359 16.5207 40.1542 16.3058C42.0611 16.1824 43.678 16.9372 44.7216 18.1512L43.1245 19.5664C42.4685 18.7494 41.4847 18.2251 40.2835 18.3028C38.3015 18.4311 36.9902 20.069 37.1205 22.081C37.2507 24.093 38.7622 25.5481 40.7442 25.4198Z" fill="#20202C"/>
<path d="M43.3986 23.8006L44.7683 21.7557L42.6337 20.3259L41.2968 22.5199L43.3986 23.8006ZM45.1639 24.983L47.2365 26.3103L48.5368 24.2799L46.5336 22.9381L45.1639 24.983ZM44.7216 18.1512L46.3539 19.9933L48.1685 18.3855L46.5881 16.5469L44.7216 18.1512ZM43.1245 19.5664L41.2054 21.1074L42.823 23.1219L44.7568 21.4085L43.1245 19.5664ZM40.9032 27.8759C42.9859 27.7411 44.582 26.5885 45.5004 25.0812L41.2968 22.5199C41.2029 22.674 41.0971 22.7758 40.9964 22.8399C40.9021 22.8999 40.7748 22.9515 40.5852 22.9638L40.9032 27.8759ZM42.0289 25.8454L43.7941 27.0278L46.5336 22.9381L44.7683 21.7557L42.0289 25.8454ZM43.0912 23.6556C42.648 24.3477 41.8611 24.8865 40.7145 24.9607L41.0325 29.8729C43.6996 29.7002 45.9269 28.3553 47.2365 26.3103L43.0912 23.6556ZM40.7145 24.9607C38.8261 25.083 37.4958 23.7851 37.3844 22.0639L32.4723 22.3819C32.7496 26.6667 36.2843 30.1803 41.0325 29.8729L40.7145 24.9607ZM37.3844 22.0639C37.273 20.3428 38.4248 18.8842 40.3132 18.7619L39.9952 13.8498C35.247 14.1571 32.1949 18.0971 32.4723 22.3819L37.3844 22.0639ZM40.3132 18.7619C41.4489 18.6884 42.3157 19.1279 42.8552 19.7556L46.5881 16.5469C45.0404 14.7464 42.6733 13.6764 39.9952 13.8498L40.3132 18.7619ZM43.0894 16.3091L41.4923 17.7243L44.7568 21.4085L46.3539 19.9933L43.0894 16.3091ZM45.0436 18.0254C43.9386 16.6492 42.2072 15.7119 40.1245 15.8467L40.4425 20.7589C40.632 20.7466 40.765 20.7814 40.8662 20.8287C40.9743 20.8793 41.0924 20.9666 41.2054 21.1074L45.0436 18.0254ZM40.1245 15.8467C36.6479 16.0718 34.4556 19.0139 34.6644 22.24L39.5766 21.922C39.5489 21.495 39.6762 21.2118 39.8074 21.0531C39.929 20.9058 40.1201 20.7798 40.4425 20.7589L40.1245 15.8467ZM34.6644 22.24C34.8732 25.466 37.4266 28.101 40.9032 27.8759L40.5852 22.9638C40.2628 22.9846 40.0571 22.8842 39.9175 22.7539C39.767 22.6134 39.6042 22.349 39.5766 21.922L34.6644 22.24Z" fill="white" mask="url(#path-19-outside-1_115_2539)"/>
<path d="M45.4248 26.7778L48.7233 16.0098L51.5161 15.829L56.1754 26.0818L53.9081 26.2286L52.7252 23.561L48.5211 23.8332L47.692 26.631L45.4248 26.7778ZM49.0641 21.9736L51.947 21.787L50.2499 17.9314L49.0641 21.9736ZM56.8975 26.0351L56.2171 15.5247L59.4303 15.3167C61.7426 15.167 63.2458 16.2609 63.3721 18.2128C63.4547 19.4891 62.9004 20.4748 61.8514 21.0403L65.4409 25.482L62.9335 25.6444L59.8506 21.5769L58.7545 21.6479L59.0296 25.8971L56.8975 26.0351ZM59.6651 17.0807L58.4639 17.1584L58.6398 19.8761L59.841 19.7984C60.7419 19.7401 61.2334 19.1805 61.178 18.3247C61.1265 17.5289 60.566 17.0224 59.6651 17.0807ZM63.7853 16.9798L63.6599 15.0429L72.2784 14.485L72.4038 16.4219L69.1606 16.6319L69.7156 25.2053L67.5835 25.3434L67.0285 16.7699L63.7853 16.9798ZM73.9305 24.9325L73.2501 14.4221L79.3762 14.0255L79.4909 15.7973L75.4969 16.0558L75.6583 18.5483L79.0516 18.3286L79.1663 20.1004L75.773 20.32L75.9479 23.0227L79.9419 22.7642L80.0566 24.5359L73.9305 24.9325Z" fill="#20202C"/>
</svg>
