<svg width="134" height="121" viewBox="0 0 134 121" fill="none" xmlns="http://www.w3.org/2000/svg">
<g clip-path="url(#clip0_115_2528)">
<path d="M23.4092 15.9734L46.8188 15.9727V31.6526H23.4092V15.9734Z" fill="white"/>
<path d="M33.6885 29.8593C33.8612 29.6866 34.034 29.5138 34.191 29.3253C34.5051 28.9641 34.8193 28.6343 35.1805 28.3202C35.2904 28.2259 35.4004 28.1317 35.5103 28.0689C35.5417 28.0375 35.5417 27.9747 35.5731 27.9432C35.4318 28.0061 35.3375 28.116 35.1805 28.1788C35.1491 28.1788 35.1177 28.1474 35.1491 28.116C35.259 28.0375 35.369 27.9589 35.4632 27.8804H35.4475C35.4161 27.8804 35.4161 27.849 35.4161 27.8176C35.0234 27.7548 34.7407 28.0218 34.4737 28.2574C34.4109 28.2888 34.3481 28.2259 34.3324 28.2259C33.8926 28.3673 33.5628 28.7599 33.1231 28.9327V28.8699C32.9503 28.9327 32.7775 29.0426 32.5891 29.074C32.3221 29.1369 32.0865 29.1055 31.8509 29.1055C31.4897 29.1369 31.1284 29.2154 30.7672 29.2939C30.7515 29.2939 30.7515 29.2939 30.7358 29.3096C30.5473 29.3567 30.3589 29.4353 30.1861 29.5295L30.1233 29.5923C30.0605 29.6551 29.9976 29.7337 29.9191 29.7651C29.7307 29.8593 29.5893 30.0164 29.4322 30.1577C29.4165 30.1734 29.4008 30.1734 29.3851 30.1734C29.2281 30.3305 29.071 30.4875 28.914 30.6289C28.8983 30.6446 28.8511 30.6446 28.8197 30.6446C28.8197 30.6289 28.8354 30.6289 28.8354 30.6132C28.8668 30.5661 28.8825 30.5347 28.914 30.4875L29.0082 30.3462C29.0553 30.2834 29.0867 30.2205 29.1338 30.1734C29.1495 30.1577 29.1495 30.142 29.1338 30.142C29.1181 30.1263 29.1024 30.1263 29.0867 30.1263C29.2281 29.985 29.4165 29.8593 29.5893 29.7494C29.5736 29.7494 29.5422 29.7337 29.5579 29.718C29.5736 29.6866 29.5893 29.6709 29.605 29.6394C29.605 29.6237 29.605 29.6237 29.6207 29.608C29.6207 29.5923 29.605 29.5923 29.605 29.5766L29.4637 29.6709C29.3851 29.7337 29.338 29.8593 29.2281 29.8593H29.181C29.1652 29.8593 29.1495 29.8593 29.1495 29.8436V29.8279C29.1495 29.8122 29.1652 29.8122 29.1652 29.7965C29.1652 29.7808 29.181 29.7808 29.181 29.7651C29.181 29.7651 29.181 29.7494 29.1967 29.7494C29.1967 29.7337 29.2124 29.718 29.2124 29.718C29.2124 29.7023 29.2281 29.7023 29.2281 29.6866C29.2438 29.6709 29.2595 29.6394 29.2595 29.6237C29.2595 29.608 29.2752 29.608 29.2752 29.5923C29.2909 29.5766 29.2909 29.5609 29.3066 29.5452C29.3223 29.5138 29.3066 29.4981 29.2909 29.4981C29.338 29.4196 29.4165 29.3724 29.4951 29.3253H29.4794C29.5893 29.2625 29.7149 29.1997 29.8249 29.1369L29.872 29.0897C29.6992 29.1526 29.5579 29.2311 29.4008 29.3253C29.4008 29.3253 29.3694 29.341 29.3537 29.3567C29.3537 29.3567 29.3223 29.3724 29.2752 29.3253V29.3096C29.3066 29.2468 29.4008 29.2154 29.448 29.1683C29.4794 29.1683 29.5108 29.1683 29.5108 29.1997C30.4688 28.4615 31.7724 28.6343 32.8718 28.2574C32.966 28.1945 33.0445 28.1317 33.1388 28.0846C33.2801 28.0218 33.4058 27.8804 33.5785 27.7862C33.8141 27.6134 33.9869 27.3935 34.0811 27.1108C34.0811 27.0794 34.0497 27.048 34.0497 27.048C33.657 27.4564 33.2173 27.7862 32.7461 28.0218C32.1179 28.3516 31.4426 28.2888 30.7829 28.383C30.8143 28.3202 30.8772 28.3202 30.9243 28.3202C30.9243 28.2259 30.9871 28.1945 31.0499 28.1474H31.1442C31.1756 28.1474 31.1756 28.0846 31.207 28.0846C31.2698 28.0846 31.364 28.0532 31.3326 28.0532C31.2384 27.9275 31.0656 28.1474 30.9243 28.0532C30.9871 27.9904 30.9557 27.9118 31.0185 27.8804H31.1442C31.1442 27.8176 31.207 27.7548 31.207 27.7548C31.6467 27.4878 32.0708 27.2836 32.4791 27.048C32.3849 27.048 32.3378 27.1423 32.2435 27.0794C32.3064 27.0794 32.2435 26.9852 32.3064 26.9852C32.6362 26.891 32.9032 26.7182 33.233 26.5926C33.1074 26.5926 33.0288 26.6868 32.9032 26.5926C32.966 26.5611 32.9974 26.4983 33.0759 26.4983V26.4041C33.0759 26.3727 33.1074 26.3727 33.1388 26.3727C33.1074 26.3727 33.0759 26.3413 33.0759 26.3413C33.1074 26.2784 33.2016 26.3099 33.2487 26.247C33.2173 26.247 33.1545 26.247 33.1545 26.2156C33.2487 26.09 33.3901 26.0743 33.5471 26.0429C33.5157 25.98 33.4215 26.0429 33.4215 25.98C33.4215 25.9486 33.4529 25.9486 33.4843 25.9486H33.4215C33.3586 25.9172 33.3901 25.8544 33.3901 25.823C33.5628 25.6188 33.5628 25.3518 33.657 25.1162C33.6256 25.1162 33.5942 25.1162 33.5942 25.0848C33.2958 25.4146 32.8246 25.5246 32.3849 25.6502H32.1807C32.0394 25.713 31.8195 25.713 31.6781 25.6188C31.5525 25.556 31.5054 25.4775 31.3797 25.3832C31.1442 25.2419 30.9086 25.1162 30.6416 25.022C29.9034 24.7864 29.1338 24.6608 28.3643 24.6922C28.6941 24.5194 29.0553 24.5037 29.4008 24.3938C29.9034 24.2524 30.3746 24.064 30.9086 24.0954C30.8143 24.064 30.7044 24.0954 30.6102 24.0954C30.2018 24.064 29.7778 24.1896 29.338 24.2681C29.0396 24.331 28.7726 24.4409 28.4742 24.5037C28.3014 24.5665 28.2072 24.7393 28.003 24.7079V24.6137C28.3014 24.2524 28.6627 23.9069 29.1338 23.8755C29.6678 23.7813 30.1704 23.8755 30.7044 23.9383C31.097 23.9697 31.4426 24.064 31.8352 24.1425C31.9765 24.1425 32.008 24.3781 32.1336 24.4095C32.3064 24.4723 32.4948 24.4095 32.6676 24.5351C32.6676 24.4723 32.6362 24.4095 32.6676 24.3624C32.7932 24.2367 32.9346 24.3938 33.0602 24.331C33.2958 24.1896 32.8561 23.9226 32.7304 23.7027C32.7304 23.6713 32.7618 23.6399 32.7618 23.6399C32.9974 23.8441 33.1702 24.0797 33.4686 24.2367C33.6099 24.2995 33.9712 24.3781 33.9083 24.2053C33.767 23.8755 33.4686 23.6085 33.2173 23.3101V23.1844C33.1545 23.1844 33.1545 23.153 33.1231 23.1216V22.996C32.9974 22.9332 33.0288 22.8232 32.9817 22.729C32.8875 22.5876 32.9503 22.3678 32.8875 22.195C32.8246 22.0222 32.7932 21.8652 32.7618 21.6924C32.6676 21.1898 32.5577 20.7501 32.4948 20.2632C32.432 19.6978 32.8246 19.2581 33.0916 18.7555C33.2958 18.3942 33.5314 18.0487 33.924 17.8131C34.0183 17.4519 34.2539 17.1535 34.4894 16.8708C34.725 16.5881 35.1177 16.3996 35.4004 16.274C35.8087 16.0855 36.1856 15.9756 36.1856 15.9756H15.7056V31.6812H30.2646C30.83 31.2728 31.3954 31.0844 32.1807 30.6917C32.5577 30.5347 33.4058 30.142 33.6885 29.8593ZM29.1338 27.7234C29.071 27.7234 28.9611 27.7548 28.9925 27.6919C29.0239 27.5506 29.2281 27.5506 29.3537 27.4878C29.4165 27.4564 29.4951 27.3935 29.5579 27.425C29.6207 27.5192 29.6992 27.4878 29.7621 27.5506C29.5736 27.7234 29.338 27.6448 29.1338 27.7234ZM24.5792 27.0794C24.5792 27.0794 24.5478 27.048 24.5478 27.0166C24.9404 26.514 25.2231 26.0429 25.5058 25.5089C25.8985 25.3047 26.2126 25.0063 26.511 24.6765C27.0136 24.1425 27.5476 23.6713 28.1758 23.3729C28.4114 23.2787 28.7098 23.3101 28.9454 23.4043C28.8511 23.53 28.7098 23.4986 28.5841 23.5771C28.5527 23.5771 28.5213 23.5771 28.4899 23.5457C28.5213 23.5143 28.5213 23.4829 28.5213 23.4514C28.2229 23.7813 27.8146 23.9226 27.579 24.3152C27.4062 24.6137 27.2806 24.9906 26.9036 25.0848C26.778 25.1162 26.9351 24.9906 26.8722 25.022C25.9456 25.5874 25.3017 26.2784 24.5792 27.0794ZM27.045 25.1162C27.0136 25.1791 26.9822 25.1791 26.9508 25.2419C26.9194 25.3047 26.8879 25.3361 26.8251 25.3675C26.7937 25.3675 26.7623 25.3675 26.7623 25.3361C26.7937 25.2105 26.8879 25.1005 26.9979 25.0691C27.045 25.0534 27.045 25.0848 27.045 25.1162ZM28.4271 29.5609C28.4114 29.5923 28.38 29.6237 28.3486 29.6551C28.38 29.6551 28.4114 29.6866 28.38 29.7023C28.3171 29.7651 28.2386 29.8279 28.1601 29.8593H28.113C28.0816 29.8907 28.0344 29.9221 28.003 29.9693C27.9716 30.0007 27.7989 29.985 27.846 29.9378C27.9245 29.875 27.9873 29.7965 28.0659 29.7337C28.113 29.7023 28.1601 29.6551 28.1915 29.608C28.2072 29.5766 28.2229 29.5609 28.2543 29.5452C28.3014 29.5138 28.4585 29.4981 28.4271 29.5609ZM27.8931 29.3253C27.7675 29.4039 27.6575 29.4824 27.5476 29.5609C27.4219 29.6394 27.2806 29.6866 27.1549 29.7494C27.1392 29.7337 27.1235 29.7337 27.1078 29.7337C26.9979 29.7965 26.9036 29.875 26.8094 29.9693L26.7623 30.0164L26.7152 30.0635L26.6524 30.1263C26.6367 30.142 26.6367 30.1577 26.6052 30.1734C26.5895 30.1891 26.5424 30.1891 26.5424 30.1577C26.5267 30.1734 26.511 30.1734 26.4953 30.1891C26.4796 30.2048 26.4639 30.2048 26.4482 30.2205H26.4168C26.3854 30.252 26.3382 30.2834 26.3068 30.3148C26.244 30.3776 26.1812 30.4247 26.1341 30.5032V30.519L26.1184 30.5347C26.1184 30.5347 26.1184 30.5504 26.1027 30.5504C26.1027 30.5661 26.087 30.5661 26.087 30.5818C26.087 30.5818 26.0712 30.5975 26.0555 30.5975L26.0398 30.5818C26.0398 30.5818 26.0398 30.5661 26.0241 30.5661C26.0084 30.5504 26.0084 30.5347 25.9927 30.519V30.5032C26.0241 30.4718 26.0555 30.4404 26.087 30.3933C26.1027 30.3776 26.1027 30.3619 26.1184 30.3619C26.1341 30.3462 26.1498 30.3148 26.1655 30.2991C26.1655 30.2834 26.1812 30.2834 26.1812 30.2677C26.2126 30.2205 26.244 30.1891 26.2754 30.142L26.2911 30.1263C26.3068 30.1106 26.3225 30.0792 26.3382 30.0635C26.354 30.0478 26.354 30.0321 26.3697 30.0007V29.985C26.3854 29.9536 26.3854 29.9378 26.4011 29.9221V29.9064C26.4011 29.8907 26.4011 29.8907 26.4168 29.875C26.4168 29.8593 26.4168 29.8436 26.4325 29.8279V29.8122C26.4639 29.7494 26.511 29.7023 26.5581 29.6551H26.5424C26.4953 29.6866 26.4639 29.718 26.4325 29.7494C26.4011 29.7808 26.3382 29.7337 26.3854 29.7023C26.4168 29.6866 26.4325 29.6551 26.4482 29.6394C26.4953 29.5923 26.5424 29.5295 26.6052 29.4824C26.6367 29.451 26.6681 29.4353 26.6995 29.4196L26.7152 29.4039C26.7309 29.3724 26.7623 29.3567 26.778 29.3253C27.0607 29.0583 27.5476 29.0583 27.9088 28.8856C28.0502 28.8228 28.2386 28.917 28.38 28.8856C28.4742 28.8856 28.5527 28.8856 28.647 28.9484C28.38 28.9955 28.1444 29.1683 27.8931 29.3253ZM28.5056 27.2522C28.4742 27.2208 28.5998 27.2522 28.6313 27.1894H28.3957C28.3643 27.1894 28.3643 27.158 28.3643 27.1265C28.2229 27.158 28.0344 27.2208 27.8931 27.2522C27.6889 27.315 27.5005 27.4564 27.2649 27.5192C26.9351 27.6448 26.6681 27.9118 26.3225 28.0218C26.2911 28.0218 26.2911 27.9904 26.2911 27.9589C26.3225 27.8647 26.4325 27.8333 26.4953 27.7548C26.4953 27.7234 26.4953 27.6919 26.4639 27.6919C26.6995 27.3621 27.0293 27.1894 27.3277 26.9224V26.8281C27.4219 26.7025 27.5633 26.6554 27.6261 26.4983C27.6575 26.4041 27.7832 26.2942 27.9245 26.2313C27.8931 26.1999 27.8303 26.1999 27.8303 26.1371C27.7046 26.1371 27.5947 26.1999 27.469 26.1057C27.5319 26.0586 27.5947 26.0272 27.6575 25.9957C27.6261 25.9957 27.6104 25.98 27.5947 25.9486C27.5633 25.8858 27.6575 25.823 27.736 25.8073C27.8617 25.7759 28.003 25.7759 28.0973 25.6816C27.8931 25.6502 27.6575 25.7445 27.4376 25.6188C27.579 25.2262 27.8303 24.9121 28.1758 24.7236C28.2072 24.7236 28.27 24.7236 28.27 24.755C28.27 24.8964 28.1758 25.022 28.0344 25.0534C28.27 25.1162 28.5056 25.1162 28.7412 25.2262C28.7098 25.289 28.647 25.2576 28.6156 25.2576C28.7569 25.3518 28.9454 25.289 29.0867 25.3989C28.9925 25.4932 28.914 25.3989 28.8197 25.3989C29.7464 25.6659 30.7201 25.8701 31.4897 26.4669C30.83 26.7967 30.1547 26.9381 29.448 27.0951C29.3537 27.0951 29.3066 27.0951 29.2124 27.0637C29.2124 27.0951 29.2124 27.158 29.181 27.158C29.0553 27.158 28.9768 27.158 28.8825 27.2208C28.7726 27.315 28.5998 27.3464 28.5056 27.2522Z" fill="#000091"/>
<path d="M58.9744 15.9766H42.1066C42.1066 15.9766 42.138 15.9766 42.2636 16.0551C42.405 16.1336 42.5777 16.2279 42.6877 16.275C42.9075 16.3849 43.1117 16.5263 43.2531 16.7461C43.3159 16.8404 43.3944 17.0131 43.3473 17.1388C43.2845 17.2801 43.2531 17.5314 43.1117 17.5785C42.939 17.6728 42.7034 17.6728 42.4835 17.6414C42.3578 17.6414 42.2479 17.6099 42.1223 17.5785C42.562 17.7513 42.9861 17.9712 43.2845 18.3795C43.3159 18.4423 43.4258 18.4738 43.5515 18.4738C43.5829 18.4738 43.5829 18.5366 43.5829 18.568C43.5201 18.6308 43.4572 18.6622 43.4887 18.7407H43.5829C43.7242 18.6779 43.7085 18.3795 43.9127 18.4738C44.0541 18.568 44.1169 18.7722 44.0383 18.9135C43.9127 19.0392 43.8028 19.1177 43.6771 19.2119C43.6457 19.2747 43.6457 19.3533 43.6771 19.4161C43.7714 19.5417 43.8028 19.6517 43.8185 19.7773C43.9127 19.9815 43.9441 20.2171 44.0226 20.4369C44.1483 20.8767 44.2582 21.3322 44.2268 21.7719C44.2268 22.0075 44.1012 22.2117 44.1954 22.4473C44.2582 22.6828 44.3996 22.8556 44.5252 23.0755C44.6509 23.2482 44.7608 23.3739 44.855 23.5467C45.0278 23.8451 45.3576 24.1435 45.2163 24.489C45.122 24.6932 44.8079 24.6617 44.588 24.7874C44.4153 24.9287 44.5566 25.18 44.6509 25.3214C44.7922 25.5884 44.4781 25.7611 44.2582 25.8397C44.321 25.9339 44.431 25.9025 44.4624 25.9653C44.4938 26.1067 44.6352 26.2009 44.5566 26.358C44.431 26.5307 44.0855 26.6249 44.2582 26.8919C44.3839 27.0961 44.3053 27.3317 44.2268 27.5516C44.1326 27.7872 43.9284 27.9442 43.6928 27.9913C43.5201 28.0542 43.3002 28.0542 43.1274 28.0227C43.0646 27.9913 43.0018 27.9599 42.9547 27.9599C42.4521 27.8971 41.9495 27.7557 41.4469 27.7557C41.3056 27.7872 41.1485 27.8186 41.0386 27.8657C40.9129 27.9599 40.7873 28.0699 40.6774 28.1798C40.6616 28.2112 40.6302 28.2269 40.6145 28.2583C40.5988 28.274 40.5831 28.2897 40.5831 28.3054L40.5517 28.3369C40.4575 28.4468 40.3947 28.5567 40.3161 28.6824C40.3161 28.6981 40.3004 28.6981 40.3004 28.6981C40.3004 28.7138 40.2847 28.7295 40.269 28.7452C40.1748 28.918 40.0962 29.1064 40.0491 29.2949C39.845 29.9702 39.9392 30.5513 40.0805 30.6927C40.112 30.7241 41.0543 31.0225 41.7139 31.3209C42.028 31.4623 42.2322 31.5565 42.4207 31.6821H58.9901V15.9766H58.9744Z" fill="#E1000F"/>
<path d="M43.1118 21.7235C43.2375 21.7549 43.4102 21.7549 43.4102 21.8177C43.3474 22.0533 43.0019 22.1161 42.8134 22.3517H42.7192C42.625 22.4145 42.6564 22.5559 42.5778 22.5559C42.4836 22.5245 42.4051 22.5559 42.3109 22.5873C42.4365 22.7129 42.5778 22.7915 42.7506 22.7601C42.782 22.7601 42.8448 22.8229 42.8448 22.8857C42.8448 22.8857 42.8763 22.8857 42.9077 22.8543C42.9391 22.8543 42.9705 22.8543 42.9705 22.8857V23.0113C42.8763 23.137 42.7349 23.0742 42.6093 23.1056C42.8448 23.1684 43.0804 23.1684 43.3003 23.1056C43.4731 23.0428 43.3003 22.7443 43.426 22.603C43.3631 22.603 43.426 22.5088 43.3631 22.5088C43.426 22.4459 43.4888 22.3674 43.5359 22.336C43.5987 22.336 43.6772 22.3046 43.7087 22.2418C43.7087 22.1789 43.583 22.1475 43.6144 22.1004C43.7872 21.9748 43.9442 21.802 43.8814 21.6292C43.85 21.535 43.6144 21.535 43.4731 21.4722C43.3317 21.4094 43.1433 21.4722 42.9705 21.5036C42.8291 21.5036 42.6721 21.5978 42.5307 21.6292C42.3266 21.6921 42.1381 21.802 41.9653 21.9277C42.1695 21.8334 42.3737 21.802 42.6093 21.7549C42.782 21.7235 42.9234 21.6921 43.1118 21.7235Z" fill="#808080"/>
<path d="M15.7056 51.3117V39.5325H19.2864C20.5848 39.5325 21.6004 39.8466 22.3333 40.4748C23.0767 41.103 23.4537 41.9616 23.4641 43.0505C23.4641 43.752 23.3018 44.3593 22.9773 44.8724C22.6527 45.3959 22.192 45.8042 21.5952 46.0974L25.2703 51.3117H22.4276L19.3021 46.5529H18.0928V51.3117H15.7056ZM18.0928 44.5268H19.4278C19.9304 44.5268 20.3178 44.396 20.59 44.1342C20.8727 43.8724 21.0141 43.5007 21.0141 43.0191C21.0141 42.5689 20.8727 42.2129 20.59 41.9511C20.3073 41.6894 19.9199 41.5637 19.4278 41.5742H18.0928V44.5268ZM26.9351 51.3117V39.5325H33.767V41.5742H29.3066V44.2913H33.0916V46.333H29.3066V49.2699H33.767V51.3117H26.9351ZM29.2438 38.5273L31.1284 36.25H33.5785L31.4111 38.5273H29.2438ZM36.6725 51.3117V39.5325H40.5518C41.8397 39.5325 42.85 39.8466 43.583 40.4748C44.3264 41.103 44.6981 41.9616 44.6981 43.0505C44.6981 44.1394 44.3264 44.9928 43.583 45.6105C42.8396 46.2388 41.8292 46.5529 40.5518 46.5529H39.0598V51.3117H36.6725ZM39.0598 44.5268H40.646C41.1591 44.5268 41.557 44.3907 41.8397 44.1185C42.1224 43.8567 42.2637 43.4903 42.2637 43.0191C42.2637 42.5689 42.1171 42.2129 41.824 41.9511C41.5413 41.6894 41.1486 41.5637 40.646 41.5742H39.0598V44.5268ZM46.6142 46.7099V39.5325H49.0014V46.8984C49.0014 47.6837 49.2108 48.3014 49.6296 48.7516C50.0484 49.1914 50.6296 49.4113 51.3729 49.4113C52.1059 49.4113 52.6817 49.1914 53.1006 48.7516C53.5194 48.3119 53.7288 47.6941 53.7288 46.8984V39.5325H56.116V46.7099C56.116 48.2595 55.692 49.4689 54.8439 50.3379C53.9958 51.207 52.8336 51.6415 51.3572 51.6415C49.8914 51.6415 48.7344 51.207 47.8863 50.3379C47.0382 49.4584 46.6142 48.2491 46.6142 46.7099ZM59.2257 51.3117V39.5325H62.5553C63.7804 39.5325 64.7384 39.8152 65.4294 40.3806C66.131 40.946 66.4817 41.7312 66.4817 42.7364C66.4817 43.7102 66.0681 44.485 65.241 45.0608C65.8587 45.3435 66.3351 45.7205 66.6702 46.1916C67.0052 46.6733 67.1728 47.223 67.1728 47.8407C67.1728 48.9192 66.7801 49.7673 65.9948 50.385C65.22 51.0028 64.1573 51.3117 62.8066 51.3117H59.2257ZM61.5973 49.2699H62.948C63.5029 49.2699 63.9374 49.1338 64.2515 48.8616C64.5656 48.5789 64.7227 48.1967 64.7227 47.7151C64.7227 47.2334 64.5656 46.8565 64.2515 46.5843C63.9374 46.3225 63.5029 46.1916 62.948 46.1916H61.5973V49.2699ZM61.5973 44.1499H62.6024C63.0527 44.1499 63.4034 44.0347 63.6547 43.8044C63.906 43.5845 64.0316 43.2652 64.0316 42.8463C64.0316 42.4485 63.906 42.1396 63.6547 41.9197C63.4139 41.6894 63.0631 41.5742 62.6024 41.5742H61.5973V44.1499ZM69.7642 51.3117V39.5325H72.1357V49.1443H76.5961V51.3117H69.7642ZM78.8577 51.3117V39.5325H81.2293V51.3117H78.8577ZM84.1348 47.825C83.8312 47.0607 83.6793 46.2597 83.6793 45.4221C83.6793 44.5844 83.8312 43.7887 84.1348 43.0348C84.4384 42.2705 84.8573 41.6056 85.3912 41.0402C85.9357 40.4748 86.5953 40.0246 87.3701 39.6895C88.1554 39.3545 88.9983 39.1869 89.8987 39.1869C90.7992 39.1869 91.6421 39.3545 92.4273 39.6895C93.2126 40.0246 93.8723 40.4748 94.4062 41.0402C94.9402 41.6056 95.3591 42.2705 95.6627 43.0348C95.9663 43.7887 96.1182 44.5844 96.1182 45.4221C96.1182 46.4063 95.914 47.3277 95.5056 48.1862C95.0973 49.0448 94.5319 49.762 93.8094 50.3379L94.5162 51.0133C95.3433 51.7671 96.16 52.1388 96.9663 52.1283C97.3013 52.1283 97.584 52.0865 97.8144 52.0027V54.0287C97.4479 54.1753 97.0343 54.2434 96.5736 54.2329C95.3067 54.2329 94.0869 53.7198 92.9142 52.6937L91.5164 51.4373C91.0034 51.5734 90.4641 51.6415 89.8987 51.6415C88.9983 51.6415 88.1554 51.4739 87.3701 51.1389C86.5953 50.8038 85.9357 50.3589 85.3912 49.8039C84.8573 49.2385 84.4384 48.5789 84.1348 47.825ZM87.1974 42.5794C86.4854 43.3437 86.1242 44.2913 86.1137 45.4221C86.1137 46.5529 86.4749 47.5004 87.1974 48.2648C87.9094 49.0291 88.8151 49.4113 89.9145 49.4113C90.6369 49.4113 91.2808 49.2385 91.8462 48.893C92.4221 48.5475 92.8723 48.0658 93.1969 47.4481C93.5215 46.8408 93.6838 46.1655 93.6838 45.4221C93.6838 44.2913 93.3226 43.3437 92.6001 42.5794C91.8881 41.815 90.9877 41.4328 89.8987 41.4328C88.7994 41.4328 87.8937 41.815 87.1817 42.5794H87.1974ZM98.3484 46.7099V39.5325H100.736V46.8984C100.736 47.6837 100.945 48.3014 101.364 48.7516C101.783 49.1914 102.364 49.4113 103.107 49.4113C103.84 49.4113 104.416 49.1914 104.835 48.7516C105.254 48.3119 105.463 47.6941 105.463 46.8984V39.5325H107.85V46.7099C107.85 48.2595 107.426 49.4689 106.578 50.3379C105.73 51.2174 104.568 51.6519 103.091 51.6415C101.626 51.6415 100.469 51.207 99.6205 50.3379C98.7724 49.4584 98.3484 48.2491 98.3484 46.7099ZM110.96 51.3117V39.5325H117.792V41.5742H113.331V44.2913H117.117V46.333H113.331V49.2699H117.792V51.3117H110.96ZM15.7056 68.3522V56.573H22.5375V58.6148H18.0928V61.3318H21.8779V63.3735H18.0928V68.3522H15.7056ZM24.7991 68.3522V56.573H28.38C29.6678 56.573 30.6887 56.8871 31.4426 57.5154C32.186 58.1436 32.5577 59.0022 32.5577 60.0911C32.5577 60.7926 32.3954 61.4051 32.0708 61.9286C31.7462 62.4522 31.2855 62.8553 30.6887 63.138L34.3638 68.3522H31.5211L28.3957 63.5934H27.1863V68.3522H24.7991ZM27.1863 61.5674H28.5213C29.0239 61.5674 29.4165 61.4365 29.6992 61.1748C29.9819 60.913 30.1181 60.5413 30.1076 60.0597C30.1076 59.6094 29.9715 59.2534 29.6992 58.9917C29.427 58.7299 29.0344 58.6043 28.5213 58.6148H27.1863V61.5674ZM35.0391 68.3522L39.4838 56.573H42.5935L47.0382 68.3522H44.5096L43.3788 65.2896H38.6828L37.5677 68.3522H35.0391ZM39.421 63.2479H42.6563L41.0387 58.8346L39.421 63.2479ZM49.0171 68.3522V56.573H52.064L57.3097 65.0069V56.573H59.6812V68.3522H56.6343L51.3887 59.8869V68.3522H49.0171ZM62.147 62.4626C62.147 61.625 62.2988 60.8292 62.6024 60.0754C62.9061 59.311 63.3249 58.6462 63.8589 58.0808C64.4033 57.5154 65.063 57.0704 65.8378 56.7458C66.6231 56.4107 67.4712 56.2432 68.3821 56.2432C69.4187 56.2432 70.361 56.4526 71.2091 56.8714C72.0677 57.3007 72.7692 57.8871 73.3136 58.6305L71.4447 60.0911C71.0992 59.599 70.6646 59.2063 70.1411 58.9132C69.6176 58.62 69.0313 58.4734 68.3821 58.4734C67.2827 58.4734 66.377 58.8556 65.665 59.6199C64.953 60.3843 64.5918 61.3318 64.5813 62.4626C64.5813 63.5934 64.9426 64.5462 65.665 65.321C66.377 66.0854 67.2827 66.4623 68.3821 66.4518C69.0313 66.4518 69.6176 66.3105 70.1411 66.0278C70.6646 65.7346 71.0992 65.3367 71.4447 64.8342L73.3136 66.2791C72.853 66.9178 72.2771 67.4413 71.586 67.8496C70.895 68.258 70.1306 68.5145 69.293 68.6192L67.8324 71.0693H65.7279L67.2042 68.5878C66.2095 68.4098 65.3247 68.0276 64.5499 67.4413C63.7751 66.855 63.1783 66.1273 62.7595 65.2582C62.3407 64.3892 62.1365 63.4573 62.147 62.4626ZM74.0047 68.3522L78.4494 56.573H81.5591L86.0038 68.3522H83.4752L82.3601 65.2896H77.6641L76.5333 68.3522H74.0047ZM78.4023 63.2479H81.6219L80.0042 58.8346L78.4023 63.2479ZM87.9827 68.3522V56.573H90.3699V68.3522H87.9827ZM92.7572 66.7188L94.4848 65.1326C94.8408 65.5933 95.2386 65.9493 95.6784 66.2006C96.1286 66.4518 96.5946 66.5775 97.0762 66.5775C97.5474 66.5775 97.9138 66.4571 98.1756 66.2163C98.4478 65.9754 98.5839 65.6404 98.5839 65.2111C98.5839 64.9598 98.5106 64.7295 98.3641 64.5201C98.207 64.3106 98.0028 64.1379 97.7515 64.0018C97.5002 63.8552 97.2123 63.7086 96.8877 63.562C96.5631 63.405 96.2333 63.2531 95.8983 63.1066C95.5632 62.96 95.2386 62.782 94.9245 62.5726C94.5999 62.3632 94.312 62.1328 94.0607 61.8815C93.8094 61.6302 93.6053 61.3109 93.4482 60.9235C93.2912 60.5361 93.2126 60.112 93.2126 59.6513C93.2126 58.6985 93.5686 57.8923 94.2806 57.2327C94.9926 56.573 95.893 56.2432 96.982 56.2432C98.6153 56.2432 99.9817 56.9028 101.081 58.2221L99.3378 59.7927C98.5839 58.8085 97.8039 58.3163 96.9977 58.3163C96.5998 58.3163 96.27 58.4368 96.0082 58.6776C95.7465 58.9184 95.6208 59.2116 95.6313 59.5571C95.6313 59.777 95.6941 59.9811 95.8197 60.1696C95.9454 60.3476 96.1077 60.5099 96.3066 60.6565C96.516 60.7926 96.7569 60.9287 97.0291 61.0648L97.8615 61.4575C98.1651 61.5936 98.4635 61.7297 98.7567 61.8658C99.0603 62.0124 99.343 62.1904 99.6048 62.3998C99.877 62.5987 100.118 62.8291 100.327 63.0908C100.537 63.3421 100.699 63.6405 100.814 63.9861C100.94 64.3421 101.003 64.7347 101.003 65.164C100.982 66.232 100.599 67.0853 99.8561 67.724C99.1232 68.3627 98.207 68.682 97.1076 68.682C96.1443 68.682 95.3119 68.5197 94.6104 68.1952C93.9089 67.8601 93.2912 67.368 92.7572 66.7188ZM103.657 68.3522V56.573H110.489V58.6148H106.044V61.3318H109.829V63.3735H106.044V66.3105H110.489V68.3522H103.657Z" fill="white"/>
<path d="M54.7182 100.645C55.0638 100.645 55.3622 100.912 55.2051 101.524L53.6188 101.948C53.8701 101.195 54.3413 100.645 54.7182 100.645ZM55.5977 103.221H55.2836C54.891 103.692 54.4512 104.069 54.0272 104.069C53.5874 104.069 53.3676 103.802 53.3676 103.221C53.3676 102.985 53.399 102.734 53.4461 102.514L56.0218 101.666C56.5244 100.472 55.9119 99.9539 55.2051 99.9539C53.9801 99.9539 52.598 102.09 52.598 103.77C52.598 104.571 52.9749 105.011 53.5717 105.011C54.2785 105.011 55.0009 104.336 55.5977 103.221ZM55.1894 99.3885L56.65 98.0535V97.865H55.6763L54.8125 99.4042H55.1894V99.3885ZM49.7082 100.676H50.5563L49.2056 104.383C49.0799 104.697 49.2527 105.011 49.5825 105.011C50.5406 105.011 51.6871 104.194 52.1268 103.032H51.8912C51.5457 103.519 50.7918 104.053 50.2264 104.163L51.4672 100.676H52.7393L52.8964 100.142H51.6556L52.1268 98.8074H51.6399L50.7604 100.142L49.7082 100.284V100.676ZM48.8286 100.488C48.9386 100.142 48.703 99.9539 48.5302 99.9539C47.7921 99.9539 46.8969 100.629 46.5513 101.556H46.7869C47.0225 101.21 47.4308 100.833 47.8235 100.771L46.3943 104.477C46.2686 104.823 46.5199 105.011 46.7084 105.011C47.4151 105.011 48.2475 104.336 48.5931 103.409H48.3575C48.1219 103.755 47.7135 104.132 47.3209 104.194L48.8286 100.488ZM48.97 99.0115C49.2841 99.0115 49.5511 98.7445 49.5511 98.4304C49.5511 98.1163 49.2841 97.8493 48.97 97.8493C48.8129 97.8493 48.6716 97.9121 48.5616 98.0221C48.4517 98.132 48.3889 98.2734 48.3889 98.4304C48.3889 98.7602 48.6402 99.0115 48.97 99.0115ZM42.0752 100.99C42.2951 100.99 42.4208 101.336 42.0752 102.106L41.0701 104.336C40.8816 104.76 41.0858 105.027 41.4941 105.027C41.7454 105.027 41.8554 104.964 41.9653 104.697L42.9548 102.09C43.4102 101.524 44.2583 100.928 44.6353 100.928C44.9022 100.928 44.8708 101.147 44.6981 101.493L43.1746 104.399C43.0333 104.681 43.2217 105.027 43.5516 105.027C44.2897 105.027 45.1849 104.351 45.5305 103.425H45.2635C45.0279 103.77 44.6195 104.147 44.2269 104.21L45.5305 101.572C45.7032 101.242 45.7818 100.928 45.7818 100.676C45.7818 100.252 45.5462 99.9696 45.0907 99.9696C44.4468 99.9696 43.8971 100.692 43.1118 101.587V100.896C43.1118 100.409 42.9548 99.9696 42.515 99.9696C41.9967 99.9696 41.5255 100.786 41.1486 101.572H41.3842C41.6512 101.195 41.8868 100.99 42.0752 100.99ZM41.0544 101.085C41.2271 100.472 41.1329 99.9539 40.6774 99.9539C40.0963 99.9539 39.9079 100.347 39.3425 101.572V100.881C39.3425 100.394 39.1854 99.9539 38.7457 99.9539C38.2274 99.9539 37.7562 100.771 37.3793 101.556H37.6149C37.8661 101.195 38.1017 100.975 38.2902 100.975C38.5101 100.975 38.6357 101.32 38.2902 102.09L37.285 104.32C37.0966 104.744 37.3007 105.011 37.7091 105.011C37.9604 105.011 38.0703 104.948 38.1803 104.681L39.1383 102.074C39.421 101.729 39.6723 101.43 39.9864 101.1H41.0544V101.085ZM35.5731 100.645C35.9187 100.645 36.2171 100.912 36.06 101.524L34.4737 101.948C34.7407 101.195 35.1962 100.645 35.5731 100.645ZM36.4526 103.221H36.1385C35.7459 103.692 35.3061 104.069 34.8821 104.069C34.4423 104.069 34.2225 103.802 34.2225 103.221C34.2225 102.985 34.2539 102.734 34.301 102.514L36.8767 101.666C37.3793 100.472 36.7825 99.9539 36.06 99.9539C34.835 99.9539 33.4529 102.09 33.4529 103.77C33.4529 104.571 33.8298 105.011 34.4266 105.011C35.1334 105.011 35.8558 104.336 36.4526 103.221ZM30.563 100.676H31.4111L30.0605 104.383C29.9348 104.697 30.1076 105.011 30.4374 105.011C31.3954 105.011 32.5577 104.194 32.9817 103.032H32.7461C32.4006 103.519 31.6467 104.053 31.0813 104.163L32.3221 100.676H33.5942L33.7513 100.142H32.5105L32.9817 98.8074H32.4948L31.6153 100.142L30.563 100.284V100.676ZM26.0555 103.566C26.0555 102.42 27.3277 100.865 28.0502 100.865C28.2072 100.865 28.3643 100.881 28.4899 100.928L27.7517 102.907C27.3277 103.425 26.6681 104.053 26.354 104.053C26.1655 104.053 26.0555 103.912 26.0555 103.566ZM29.9662 99.734L29.5736 99.7026L29.1338 100.142H29.0553C27.1863 100.142 25.176 102.467 25.176 104.304C25.176 104.728 25.4116 105.011 25.8671 105.011C26.4168 105.011 26.9508 104.226 27.5633 103.393L27.5319 103.692C27.4533 104.54 27.7203 105.011 28.1601 105.011C28.6784 105.011 29.1495 104.194 29.5108 103.409H29.2752C29.0239 103.77 28.7883 103.99 28.5999 103.99C28.4114 103.99 28.27 103.629 28.5999 102.875L29.9662 99.734ZM25.9613 101.085C26.1341 100.472 26.0398 99.9539 25.5844 99.9539C25.0033 99.9539 24.8148 100.347 24.2494 101.572V100.881C24.2494 100.394 24.0923 99.9539 23.6369 99.9539C23.1186 99.9539 22.6474 100.771 22.2862 101.556H22.5218C22.7731 101.195 23.0087 100.975 23.1971 100.975C23.417 100.975 23.5427 101.32 23.1971 102.09L22.1763 104.336C21.9878 104.76 22.192 105.027 22.6003 105.027C22.8516 105.027 22.9615 104.964 23.0715 104.697L24.0609 102.074C24.3436 101.729 24.5949 101.43 24.909 101.1H25.9613V101.085ZM19.3807 104.838L19.4749 104.556C18.2342 104.32 18.0771 104.32 18.5797 102.969L19.0509 101.697H20.0403C20.6528 101.697 20.6685 101.964 20.5743 102.64H20.9355L21.7522 100.394H21.391C21.0769 100.928 20.8413 101.336 20.166 101.336H19.1765L19.8518 99.4984C20.0874 98.8388 20.1974 98.7131 21.0455 98.7131H21.2653C22.1291 98.7131 22.2391 98.9487 22.2391 99.8596H22.5846L22.8673 98.3362H18.0771L17.9829 98.6189C18.9723 98.8231 19.0666 98.9173 18.6111 100.205L17.5902 102.985C17.1191 104.257 16.9306 104.367 15.7841 104.571L15.7056 104.854H19.3807V104.838ZM43.1432 89.8238C43.4887 89.8238 43.7871 90.0908 43.6301 90.7033L42.0438 91.1273C42.2951 90.3735 42.7663 89.8238 43.1432 89.8238ZM44.0227 92.3995H43.7086C43.316 92.8707 42.8762 93.2476 42.4522 93.2476C42.0124 93.2476 41.7925 92.9806 41.7925 92.3995C41.7925 92.1639 41.824 91.9126 41.8711 91.6927L44.4468 90.8446C44.9494 89.651 44.3368 89.1327 43.6301 89.1327C42.4051 89.1327 41.023 91.2687 41.023 92.9492C41.023 93.7502 41.3999 94.1899 41.9967 94.1899C42.7035 94.2056 43.4259 93.5146 44.0227 92.3995ZM43.6144 88.5673L45.075 87.2323V87.0439H44.1013L43.2375 88.583H43.6144V88.5673ZM38.1331 89.8552H38.9812L37.6306 93.5617C37.5049 93.8758 37.6777 94.1899 38.0075 94.1899C38.9655 94.1899 40.112 93.3732 40.5518 92.211H40.3162C39.9707 92.6979 39.2168 93.2319 38.6514 93.3418L39.8922 89.8552H41.1643L41.3214 89.3212H40.0806L40.5518 87.9862H40.0649L39.1854 89.3212L38.1331 89.4782V89.8552ZM37.2536 89.6824C37.3636 89.3369 37.128 89.1484 36.9395 89.1484C36.2014 89.1484 35.3061 89.8238 34.9606 90.7504H35.1962C35.4318 90.4049 35.8401 90.0279 36.2328 89.9651L34.8036 93.6716C34.6779 94.0172 34.9292 94.2056 35.1177 94.2056C35.8244 94.2056 36.6568 93.5303 37.0023 92.6037H36.7668C36.5312 92.9492 36.1228 93.3261 35.7302 93.3889L37.2536 89.6824ZM37.395 88.2061C37.7091 88.2061 37.9761 87.9391 37.9761 87.625C37.9761 87.3109 37.7091 87.0439 37.395 87.0439C37.1908 87.0439 37.0023 87.1538 36.8924 87.3266C36.7825 87.4993 36.7825 87.7349 36.8924 87.9234C37.0023 88.0962 37.1908 88.2218 37.395 88.2061ZM32.8404 93.3889L35.1962 87.1381L35.1177 87.0282L33.4843 87.2166V87.4051L33.7984 87.6407C34.0811 87.8606 33.9869 88.0647 33.7356 88.7715L31.9451 93.546C31.7881 93.8287 31.9923 94.1742 32.3221 94.1742C33.0602 94.1742 33.8612 93.4989 34.2067 92.5722H33.9712C33.7199 92.9335 33.2173 93.3104 32.8404 93.3889ZM28.0344 92.745C28.0344 91.5985 29.3066 90.0436 30.0291 90.0436C30.1861 90.0436 30.3275 90.0594 30.4688 90.1065L29.7149 92.0854C29.2909 92.6037 28.6313 93.2319 28.3172 93.2319C28.1444 93.2476 28.0344 93.0905 28.0344 92.745ZM31.9451 88.9286L31.5525 88.8971L31.1127 89.3369H31.0342C29.1653 89.3369 27.1549 91.6613 27.1549 93.4989C27.1549 93.9229 27.3905 94.2056 27.846 94.2056C28.3957 94.2056 28.9297 93.4203 29.5422 92.588L29.5108 92.8864C29.4322 93.7345 29.6992 94.2056 30.139 94.2056C30.6573 94.2056 31.1284 93.3889 31.4897 92.6037H31.2541C31.0028 92.9649 30.7672 93.1848 30.5788 93.1848C30.3903 93.1848 30.2489 92.8235 30.5788 92.0854L31.9451 88.9286ZM22.8516 95.1008C22.8516 94.614 23.3228 94.2999 23.9981 94.0329C24.218 94.1428 24.5635 94.2684 25.0033 94.4098C25.71 94.6454 25.977 94.7396 25.977 94.9438C25.977 95.3993 25.3331 95.7448 24.1552 95.7448C23.2757 95.7605 22.8516 95.572 22.8516 95.1008ZM24.7834 92.1011C24.4693 92.1011 24.3593 91.8341 24.3593 91.5357C24.3593 90.609 24.7991 89.494 25.5059 89.494C25.82 89.494 25.9299 89.7609 25.9299 90.0594C25.9299 90.9703 25.4744 92.1011 24.7834 92.1011ZM26.7937 94.6454C26.7937 94.0486 26.2597 93.8287 25.3959 93.5774C24.6577 93.3575 24.3122 93.2947 24.3122 93.0434C24.3122 92.8549 24.4693 92.6194 24.7834 92.4466C26.0084 92.3838 26.778 91.2844 26.778 90.3106C26.778 90.1379 26.7466 89.9808 26.6995 89.8395H27.5319L27.6889 89.3055H26.2754C26.087 89.1798 25.8514 89.117 25.5844 89.117C24.2965 89.117 23.4641 90.2478 23.4641 91.253C23.4641 91.8969 23.8411 92.3367 24.4379 92.4152C23.8411 92.6979 23.4955 92.9963 23.4955 93.3732C23.4955 93.5931 23.5741 93.7502 23.7625 93.8915C22.3804 94.2999 21.815 94.8181 21.815 95.415C21.815 96.0589 22.6631 96.3259 23.6683 96.3259C25.3645 96.3416 26.7937 95.415 26.7937 94.6454ZM20.3858 90.876C20.9983 90.876 21.0141 91.143 20.9198 91.8184H21.281L22.0977 89.5725H21.7365C21.4224 90.1065 21.1868 90.5148 20.5115 90.5148H19.1451L19.8204 88.6773C20.056 88.0176 20.1817 87.892 21.0141 87.892H21.6109C22.4747 87.892 22.5846 88.1276 22.5846 89.0385H22.9301L23.2128 87.515H18.0771L17.9829 87.7978C18.9723 88.0019 19.0666 88.0962 18.6111 89.384L17.5902 92.1639C17.1191 93.4361 16.9306 93.546 15.7841 93.7502L15.7056 94.0329H21.4224L22.4433 92.4152H22.0506C21.391 93.0748 20.7156 93.6559 19.4435 93.6559C17.9201 93.6559 18.0614 93.5774 18.564 92.1639L19.0352 90.8918H20.3858V90.876ZM21.124 87.0439L22.5846 85.9759V85.7874H21.6109L20.7471 87.0439H21.124ZM42.9548 79.0183C43.3003 79.0183 43.5987 79.2853 43.4416 79.8978L41.8554 80.3219C42.1067 79.5523 42.5778 79.0183 42.9548 79.0183ZM43.8343 81.594H43.5202C43.1275 82.0652 42.6878 82.4421 42.2637 82.4421C41.824 82.4421 41.6041 82.1752 41.6041 81.594C41.6041 81.3585 41.6355 81.1072 41.6826 80.8873L44.2583 80.0392C44.7609 78.8456 44.1484 78.3273 43.4416 78.3273C42.2166 78.3273 40.8345 80.4632 40.8345 82.1437C40.8345 82.9447 41.2114 83.3845 41.8082 83.3845C42.515 83.3845 43.2375 82.7091 43.8343 81.594ZM43.4259 77.7619L44.8865 76.4269V76.2384H43.9128L43.049 77.7776H43.4259V77.7619ZM37.9447 79.034H38.8085L37.4578 82.7406C37.3322 83.0547 37.5049 83.3688 37.8347 83.3688C38.7928 83.3688 39.955 82.5521 40.379 81.3899H40.1435C39.7979 81.8767 39.0441 82.4107 38.4787 82.5207L39.7194 79.034H40.9916L41.1486 78.5H39.9079L40.379 77.1651H39.8922L39.0127 78.5L37.9604 78.6414V79.034H37.9447ZM37.5049 79.4581C37.6777 78.8456 37.5834 78.3273 37.128 78.3273C36.5469 78.3273 36.3584 78.7199 35.793 79.945V79.2539C35.793 78.767 35.636 78.3273 35.1962 78.3273C34.6779 78.3273 34.2067 79.144 33.8298 79.9293H34.0654C34.3167 79.568 34.5523 79.3481 34.7407 79.3481C34.9606 79.3481 35.0863 79.6937 34.7407 80.4632L33.7356 82.6934C33.5471 83.1175 33.7513 83.3845 34.1596 83.3845C34.4109 83.3845 34.5209 83.3217 34.6308 83.0547L35.6202 80.4475C35.9029 80.102 36.1542 79.8036 36.4683 79.4738H37.5049V79.4581ZM32.0237 79.0183C32.3692 79.0183 32.6676 79.2853 32.5105 79.8978L30.9243 80.3219C31.1756 79.5523 31.6467 79.0183 32.0237 79.0183ZM32.9032 81.594H32.5891C32.1964 82.0652 31.7567 82.4421 31.3326 82.4421C30.8929 82.4421 30.673 82.1752 30.673 81.594C30.673 81.3585 30.7044 81.1072 30.7515 80.8873L33.3272 80.0392C33.8298 78.8456 33.233 78.3273 32.5105 78.3273C31.2855 78.3273 29.9034 80.4632 29.9034 82.1437C29.9034 82.9447 30.2803 83.3845 30.8772 83.3845C31.5839 83.3845 32.3064 82.7091 32.9032 81.594ZM26.9036 82.6306C26.6524 82.6306 26.2911 82.395 26.2911 82.1909C26.2911 82.128 26.4011 81.8296 26.5424 81.4684L26.9508 80.369C27.3905 79.835 28.0816 79.2539 28.4742 79.2539C28.7098 79.2539 28.8826 79.411 28.8826 79.7408C28.8668 80.7774 27.9245 82.6306 26.9036 82.6306ZM29.7621 79.3481C29.7621 78.5943 29.5736 78.3116 29.0396 78.3116C28.38 78.3116 27.7675 79.0183 27.1392 79.8664L28.4585 76.317L28.38 76.207L26.7466 76.3955V76.584L27.0607 76.8195C27.3434 77.0394 27.2492 77.2593 26.9979 77.9504L25.5687 81.704C25.443 82.0181 25.3017 82.395 25.3017 82.4893C25.3017 82.929 25.8985 83.3531 26.4482 83.3531C27.6889 83.3845 29.7621 81.1072 29.7621 79.3481ZM24.9404 78.8613C25.0347 78.5158 24.8148 78.3273 24.6263 78.3273C23.8882 78.3273 22.993 79.0026 22.6474 79.9293H22.883C23.1186 79.5837 23.5269 79.2068 23.9196 79.144L22.4904 82.8505C22.3647 83.196 22.616 83.3845 22.8045 83.3845C23.5112 83.3845 24.3436 82.7091 24.6892 81.7825H24.4536C24.218 82.128 23.8096 82.505 23.417 82.5678L24.9404 78.8613ZM25.0975 77.3849C25.4116 77.3849 25.6786 77.118 25.6786 76.8038C25.6786 76.4897 25.4116 76.2227 25.0975 76.2227C24.8933 76.2227 24.7049 76.3327 24.5949 76.5054C24.485 76.6782 24.485 76.9138 24.5949 77.1022C24.7049 77.275 24.8933 77.4007 25.0975 77.3849ZM21.4695 76.6782H18.0771L17.9829 76.9609C18.9723 77.1651 19.0666 77.2593 18.6111 78.5472L17.5902 81.3271C17.1191 82.5992 16.9306 82.7091 15.7841 82.9133L15.7056 83.196H20.857L21.9721 81.2014H21.5795C20.9355 81.9082 20.1974 82.8034 19.0509 82.8034C18.187 82.8034 18.0614 82.6463 18.5483 81.3113L19.5691 78.5315C20.0403 77.2593 20.2288 77.1494 21.3753 76.9452L21.4695 76.6782Z" fill="white"/>
</g>
<defs>
<clipPath id="clip0_115_2528">
<rect width="133.497" height="120.462" fill="white" transform="translate(0 0.269531)"/>
</clipPath>
</defs>
</svg>
